<svg width="76" height="40" viewBox="0 0 76 40" fill="none" xmlns="http://www.w3.org/2000/svg">
<path d="M37.2538 11.0015C36.4596 10.2116 36.0625 9.22431 36.0625 8.03954C36.0625 6.85476 36.4596 5.86745 37.2538 5.0776C38.0595 4.28775 39.0609 3.89283 40.258 3.89283C41.4551 3.89283 42.4508 4.28775 43.245 5.0776C44.0507 5.86745 44.4536 6.85476 44.4536 8.03954C44.4536 9.22431 44.0507 10.2116 43.245 11.0015C42.4508 11.7913 41.4551 12.1862 40.258 12.1862C39.0609 12.1862 38.0595 11.7913 37.2538 11.0015ZM38.4279 6.17775C37.9444 6.68551 37.7027 7.30611 37.7027 8.03954C37.7027 8.77297 37.9444 9.39356 38.4279 9.90132C38.9113 10.4091 39.5214 10.663 40.258 10.663C40.9947 10.663 41.6047 10.4091 42.0882 9.90132C42.5716 9.39356 42.8133 8.77297 42.8133 8.03954C42.8133 7.30611 42.5716 6.68551 42.0882 6.17775C41.6047 5.66999 40.9947 5.41611 40.258 5.41611C39.5214 5.41611 38.9113 5.66999 38.4279 6.17775Z" fill="#212121"/>
<path d="M48.2895 4.06208V4.82372C48.9456 4.20313 49.7571 3.89283 50.7239 3.89283C51.944 3.89283 52.9282 4.3611 53.6764 5.29763C54.2058 5.95208 54.4706 6.89425 54.4706 8.12416V12.017H52.8303V8.03954C52.8303 7.20455 52.6692 6.5896 52.3469 6.19467C51.9325 5.67563 51.3743 5.41611 50.6721 5.41611C49.7513 5.41611 48.9744 5.79411 48.3413 6.55011V12.017H46.7011V4.06208H48.2895Z" fill="#212121"/>
<path d="M57.2391 12.017V0H58.8794V12.017H57.2391Z" fill="#212121"/>
<path d="M63.535 16.0791H61.7912L63.9839 11.1876L60.5135 4.06208H62.2746L64.8127 9.30894L67.1435 4.06208H68.8701L63.535 16.0791Z" fill="#212121"/>
<path d="M41.7601 13.2477L41.4148 14.7202C41.2537 14.6751 41.0522 14.6525 40.8105 14.6525C40.2695 14.6525 39.8552 14.8387 39.5674 15.211C39.3602 15.4818 39.2566 15.9558 39.2566 16.6328V17.3606H41.7601V18.7992H39.2566V25.3155H37.6164V18.7992H35.7172V17.3606H37.6164V16.6835C37.6164 15.6793 37.789 14.9346 38.1343 14.4494C38.7559 13.5693 39.6422 13.1292 40.7933 13.1292C41.1731 13.1292 41.4954 13.1687 41.7601 13.2477Z" fill="#212121"/>
<path d="M48.2435 17.2421L48.0536 18.7823C47.8809 18.7372 47.668 18.7146 47.4147 18.7146C47.0004 18.7146 46.586 18.8444 46.1716 19.1039C45.7688 19.3521 45.4522 19.6681 45.222 20.0517V25.3155H43.5818V17.3606H45.1702V18.2745C45.3889 17.9699 45.7112 17.716 46.1371 17.5129C46.563 17.2985 47.0522 17.1913 47.6047 17.1913C47.8349 17.1913 48.0478 17.2082 48.2435 17.2421Z" fill="#212121"/>
<path d="M57.0357 21.6765H50.7856C50.8316 22.3535 51.1021 22.9234 51.5971 23.386C52.1035 23.8486 52.7078 24.0799 53.41 24.0799C54.2963 24.0799 55.0732 23.7188 55.7408 22.9967L56.8113 23.9953C56.4775 24.4241 56.0171 24.7795 55.43 25.0616C54.843 25.3437 54.1639 25.4847 53.3927 25.4847C52.2071 25.4847 51.2115 25.0898 50.4057 24.3C49.6 23.5101 49.1972 22.5228 49.1972 21.338C49.1972 20.142 49.5655 19.1546 50.3022 18.3761C51.0503 17.5862 51.9999 17.1913 53.151 17.1913C54.279 17.1913 55.2113 17.5862 55.948 18.3761C56.6847 19.1659 57.053 20.1532 57.053 21.338C57.053 21.4621 57.0472 21.575 57.0357 21.6765ZM53.2028 18.5961C52.6733 18.5961 52.1956 18.7597 51.7697 19.0869C51.3438 19.4029 51.0618 19.8147 50.9237 20.3225H55.3437C55.2286 19.826 54.9639 19.4142 54.5495 19.0869C54.1466 18.7597 53.6977 18.5961 53.2028 18.5961Z" fill="#212121"/>
<path d="M58.5192 24.3846L59.3652 23.1998C60.1364 23.7866 60.9364 24.0799 61.7652 24.0799C62.145 24.0799 62.4731 23.9897 62.7493 23.8091C63.0371 23.6173 63.1809 23.3747 63.1809 23.0813C63.1809 22.9121 63.1349 22.7654 63.0428 22.6413C62.9507 22.5059 62.8069 22.3987 62.6112 22.3197C62.427 22.2294 62.2428 22.1617 62.0587 22.1166C61.886 22.0602 61.6501 21.9981 61.3508 21.9304C61.063 21.8514 60.8271 21.7837 60.6429 21.7273C59.3998 21.3211 58.7782 20.6384 58.7782 19.6793C58.7782 18.8782 59.0775 18.2632 59.676 17.8345C60.2746 17.4057 60.9767 17.1913 61.7824 17.1913C62.8414 17.1913 63.7392 17.4847 64.4759 18.0714L63.6299 19.2223C63.0658 18.8049 62.4846 18.5961 61.886 18.5961C61.4717 18.5961 61.1206 18.6864 60.8328 18.8669C60.5566 19.0475 60.4184 19.2901 60.4184 19.5947C60.4184 19.8429 60.5336 20.0291 60.7638 20.1532C61.0055 20.2774 61.3738 20.4015 61.8688 20.5256C62.2601 20.6272 62.5997 20.7343 62.8874 20.8472C63.1752 20.9487 63.4802 21.0954 63.8025 21.2872C64.1248 21.4791 64.3723 21.7273 64.5449 22.032C64.7291 22.3253 64.8212 22.6638 64.8212 23.0475C64.8212 23.7696 64.5219 24.3564 63.9234 24.8077C63.3363 25.2591 62.6284 25.4847 61.7997 25.4847C60.5336 25.4847 59.4401 25.118 58.5192 24.3846Z" fill="#212121"/>
<path d="M68.7936 13.2985V18.0545C69.4842 17.479 70.2785 17.1913 71.1763 17.1913C72.3964 17.1913 73.3805 17.6596 74.1287 18.5961C74.6582 19.2506 74.9229 20.1927 74.9229 21.4226V25.3155H73.2827V21.338C73.2827 20.503 73.1215 19.8881 72.7992 19.4932C72.3849 18.9741 71.8266 18.7146 71.1245 18.7146C70.2036 18.7146 69.4267 19.0926 68.7936 19.8486V25.3155H67.1534V13.2985H68.7936Z" fill="#212121"/>
<path d="M38.3415 30.659V31.4207C38.9976 30.8001 39.8091 30.4898 40.776 30.4898C41.9961 30.4898 42.9802 30.9581 43.7284 31.8946C44.2579 32.549 44.5226 33.4912 44.5226 34.7211V38.614H42.8824V34.6365C42.8824 33.8015 42.7212 33.1866 42.399 32.7916C41.9846 32.2726 41.4263 32.0131 40.7242 32.0131C39.8034 32.0131 39.0264 32.3911 38.3933 33.1471V38.614H36.7531V30.659H38.3415Z" fill="#212121"/>
<path d="M54.4392 34.975H48.189C48.235 35.652 48.5055 36.2218 49.0005 36.6845C49.5069 37.1471 50.1112 37.3784 50.8134 37.3784C51.6997 37.3784 52.4766 37.0173 53.1442 36.2952L54.2147 37.2938C53.8809 37.7225 53.4205 38.078 52.8335 38.3601C52.2464 38.6422 51.5673 38.7832 50.7961 38.7832C49.6105 38.7832 48.6149 38.3883 47.8092 37.5984C47.0034 36.8086 46.6006 35.8213 46.6006 34.6365C46.6006 33.4404 46.9689 32.4531 47.7056 31.6746C48.4537 30.8847 49.4034 30.4898 50.5544 30.4898C51.6824 30.4898 52.6148 30.8847 53.3514 31.6746C54.0881 32.4644 54.4564 33.4517 54.4564 34.6365C54.4564 34.7606 54.4507 34.8735 54.4392 34.975ZM50.6062 31.8946C50.0767 31.8946 49.599 32.0582 49.1731 32.3854C48.7473 32.7014 48.4653 33.1132 48.3271 33.621H52.7471C52.632 33.1245 52.3673 32.7127 51.9529 32.3854C51.55 32.0582 51.1011 31.8946 50.6062 31.8946Z" fill="#212121"/>
<path d="M61.4669 30.659H62.6065L64.8337 36.0921L67.061 30.659H68.753L65.4553 38.614H64.3158L62.0367 33.0286L59.7576 38.614H58.6181L55.3204 30.659H57.0124L59.2397 36.0921L61.4669 30.659Z" fill="#212121"/>
<path d="M69.698 37.6831L70.5441 36.4983C71.3153 37.085 72.1152 37.3784 72.944 37.3784C73.3238 37.3784 73.6519 37.2881 73.9281 37.1076C74.2159 36.9158 74.3598 36.6732 74.3598 36.3798C74.3598 36.2106 74.3137 36.0639 74.2216 35.9398C74.1295 35.8043 73.9857 35.6972 73.79 35.6182C73.6058 35.5279 73.4217 35.4602 73.2375 35.4151C73.0648 35.3586 72.8289 35.2966 72.5296 35.2289C72.2418 35.1499 72.0059 35.0822 71.8217 35.0258C70.5786 34.6196 69.957 33.9369 69.957 32.9778C69.957 32.1767 70.2563 31.5617 70.8548 31.133C71.4534 30.7042 72.1555 30.4898 72.9612 30.4898C74.0202 30.4898 74.918 30.7832 75.6547 31.3699L74.8087 32.5208C74.2446 32.1033 73.6634 31.8946 73.0648 31.8946C72.6505 31.8946 72.2994 31.9849 72.0116 32.1654C71.7354 32.3459 71.5973 32.5885 71.5973 32.8932C71.5973 33.1414 71.7124 33.3276 71.9426 33.4517C72.1843 33.5758 72.5526 33.7 73.0476 33.8241C73.4389 33.9256 73.7785 34.0328 74.0662 34.1457C74.354 34.2472 74.659 34.3939 74.9813 34.5857C75.3036 34.7775 75.5511 35.0258 75.7237 35.3304C75.9079 35.6238 76 35.9623 76 36.346C76 37.0681 75.7007 37.6549 75.1022 38.1062C74.5151 38.5575 73.8073 38.7832 72.9785 38.7832C71.7124 38.7832 70.6189 38.4165 69.698 37.6831Z" fill="#212121"/>
<path d="M29.4464 37.7273C29.4464 38.1209 29.3762 38.4554 29.2357 38.7308C29.1152 39.0063 28.9446 39.2326 28.7238 39.4097C28.5231 39.5868 28.2923 39.7147 28.0313 39.7934C27.7704 39.8721 27.5094 39.9115 27.2485 39.9115H25.5925C25.0706 39.9115 24.609 39.8623 24.2075 39.7639C23.8261 39.6458 23.4548 39.4491 23.0935 39.1736C22.7522 38.8784 22.401 38.4849 22.0397 37.993C21.6984 37.501 21.3171 36.8714 20.8955 36.104L8.61113 14.3806C7.9688 13.259 7.31645 12.0882 6.65405 10.8683C6.01173 9.62861 5.40955 8.42832 4.84752 7.26738H4.7873C4.82745 8.68412 4.85756 10.1304 4.87763 11.6061C4.8977 13.0819 4.90774 14.5479 4.90774 16.004V39.0555C4.90774 39.1933 4.8676 39.331 4.7873 39.4687C4.70701 39.5868 4.56651 39.6852 4.36578 39.7639C4.18513 39.8229 3.93422 39.8721 3.61306 39.9115C3.31197 39.9705 2.92056 40 2.43882 40C1.95707 40 1.55562 39.9705 1.23446 39.9115C0.933374 39.8721 0.692503 39.8229 0.51185 39.7639C0.331197 39.6852 0.200726 39.5868 0.120435 39.4687C0.0401451 39.331 0 39.1933 0 39.0555V3.81407C0 3.02699 0.220798 2.4662 0.662394 2.13169C1.10399 1.79718 1.58573 1.62993 2.10762 1.62993H4.57654C5.15865 1.62993 5.64039 1.67912 6.02177 1.77751C6.42322 1.87589 6.77449 2.04314 7.07558 2.27927C7.39674 2.49571 7.69783 2.81055 7.97884 3.22376C8.27993 3.6173 8.60109 4.11906 8.94232 4.72905L18.3965 21.4938C18.9786 22.517 19.5406 23.5206 20.0826 24.5044C20.6246 25.4686 21.1464 26.4229 21.6483 27.3674C22.1501 28.3119 22.6418 29.2465 23.1236 30.1714C23.6254 31.0765 24.1172 31.9915 24.5989 32.9163H24.629C24.5889 31.3618 24.5588 29.7483 24.5387 28.0758C24.5387 26.3836 24.5387 24.7602 24.5387 23.2057V2.48588C24.5387 2.34814 24.5788 2.22024 24.6591 2.10218C24.7394 1.98411 24.8699 1.88573 25.0506 1.80702C25.2513 1.70864 25.5022 1.63977 25.8033 1.60041C26.1244 1.56106 26.5359 1.54138 27.0377 1.54138C27.4793 1.54138 27.8607 1.56106 28.1819 1.60041C28.503 1.63977 28.7539 1.70864 28.9346 1.80702C29.1152 1.88573 29.2457 1.98411 29.326 2.10218C29.4063 2.22024 29.4464 2.34814 29.4464 2.48588V37.7273Z" fill="#09E079"/>
</svg>
